<?xml version="1.0" standalone="no"?>
<!DOCTYPE svg PUBLIC "-//W3C//DTD SVG 20010904//EN"
 "http://www.w3.org/TR/2001/REC-SVG-20010904/DTD/svg10.dtd">
<svg version="1.0" xmlns="http://www.w3.org/2000/svg"
 width="1182.000000pt" height="1182.000000pt" viewBox="0 0 1182.000000 1182.000000"
 preserveAspectRatio="xMidYMid meet">
<metadata>
Created by potrace 1.14, written by Peter Selinger 2001-2017
</metadata>
<g transform="translate(0.000000,1182.000000) scale(0.100000,-0.100000)"
fill="#000000" stroke="none">
<path d="M8995 7854 c-93 -49 -150 -109 -213 -227 -29 -53 -87 -143 -130 -200
-85 -114 -279 -313 -389 -400 -40 -31 -103 -81 -140 -111 -38 -29 -111 -77
-163 -106 -52 -29 -124 -70 -160 -90 -139 -81 -339 -180 -430 -213 -52 -20
-132 -51 -177 -71 -79 -34 -168 -63 -283 -93 -30 -7 -95 -25 -145 -38 -145
-38 -225 -52 -485 -86 -205 -26 -281 -32 -465 -33 -210 -1 -481 14 -610 34
-184 28 -410 73 -480 94 -90 28 -196 63 -238 78 -54 21 -107 68 -158 145 -88
130 -143 195 -255 299 -176 163 -331 284 -365 284 -16 0 -52 9 -81 21 -29 11
-105 34 -168 50 -63 16 -137 41 -163 55 l-49 25 -36 -19 c-21 -10 -43 -17 -50
-15 -7 3 -65 68 -129 145 -64 77 -127 144 -140 149 -38 14 -150 11 -191 -6
-55 -23 -152 -101 -192 -154 -54 -72 -117 -203 -131 -270 l-12 -62 -46 8
c-131 23 -224 -12 -392 -148 -237 -191 -330 -350 -316 -544 3 -44 14 -105 24
-135 27 -84 175 -379 245 -488 257 -403 290 -448 512 -686 220 -237 380 -387
501 -467 87 -58 316 -227 325 -239 3 -4 24 -17 48 -29 23 -12 89 -52 145 -88
56 -36 131 -79 167 -95 36 -16 106 -49 155 -73 260 -128 427 -193 800 -311
235 -74 552 -137 830 -164 121 -11 233 -25 249 -30 16 -6 188 -10 394 -10 315
0 380 3 471 19 58 11 151 24 206 30 55 5 170 24 255 40 85 16 209 39 275 51
66 12 133 30 150 40 16 10 55 21 85 25 30 4 78 18 105 30 28 13 88 33 135 45
149 37 297 98 600 248 220 109 333 171 446 247 84 56 167 108 185 115 55 22
212 144 399 310 202 178 174 151 275 265 45 50 112 122 150 160 152 152 452
594 521 767 18 45 44 82 89 128 92 94 100 115 99 235 -1 85 -7 118 -37 217
-41 131 -71 192 -161 323 -83 122 -185 223 -266 264 -36 18 -94 48 -130 66
-59 30 -111 45 -211 60 l-36 5 5 49 c6 63 -22 201 -55 265 -75 151 -181 256
-308 310 -116 48 -165 48 -260 0z m229 -190 c73 -34 135 -103 182 -200 33 -68
39 -91 42 -165 5 -99 -9 -138 -61 -169 -76 -47 -198 -8 -292 92 -88 93 -94
102 -121 193 -20 71 -25 102 -20 148 8 77 15 88 78 114 65 27 114 24 192 -13z
m-6374 -284 c41 -22 30 -132 -24 -237 -34 -67 -124 -154 -195 -191 l-60 -31
-33 22 c-18 12 -44 43 -57 70 l-23 47 38 77 c88 174 261 293 354 243z m6020
-145 c20 -44 58 -106 84 -138 54 -65 190 -161 246 -172 38 -8 80 -40 80 -63 0
-22 -194 -301 -314 -452 -145 -181 -221 -255 -422 -405 -90 -68 -122 -129 -94
-180 28 -52 72 -40 196 51 166 123 291 242 332 317 13 23 42 62 66 87 24 25
61 70 82 100 21 30 52 75 70 100 17 25 66 105 107 177 93 164 134 223 152 223
9 0 17 -23 24 -72 17 -107 39 -175 81 -248 20 -36 52 -96 71 -134 35 -72 114
-166 227 -271 l65 -61 -64 -79 c-191 -239 -797 -802 -1024 -953 -55 -37 -147
-101 -205 -143 -58 -42 -171 -113 -252 -157 -80 -45 -164 -91 -185 -105 -21
-13 -155 -73 -298 -134 -237 -101 -485 -187 -785 -272 -97 -27 -353 -77 -500
-96 -63 -9 -142 -20 -175 -27 -38 -7 -215 -11 -490 -12 -422 -1 -434 0 -620
27 -104 16 -203 32 -220 37 -16 6 -66 15 -110 21 -194 26 -672 173 -865 265
-52 25 -120 55 -150 66 -30 12 -71 31 -91 44 -20 12 -80 44 -135 71 -216 108
-560 339 -786 530 -234 196 -341 299 -493 473 -114 130 -425 542 -425 562 0 7
36 45 80 83 69 60 213 210 259 268 8 10 22 46 31 80 9 34 20 62 23 62 3 0 66
-81 140 -180 l136 -180 -30 -23 c-24 -19 -29 -31 -29 -66 0 -49 15 -100 42
-136 10 -14 27 -52 38 -84 11 -33 49 -107 83 -165 35 -58 83 -141 106 -184 23
-42 78 -128 123 -190 45 -61 91 -125 102 -141 34 -47 208 -172 257 -184 24 -6
103 -41 174 -77 129 -65 132 -66 306 -95 162 -27 198 -28 239 -12 8 3 33 6 55
7 52 1 186 88 271 176 179 186 202 221 235 346 35 139 22 305 -36 438 -7 17
-16 41 -20 55 -4 14 -20 39 -35 55 -29 31 -95 165 -81 165 4 0 45 -15 92 -34
122 -49 313 -99 564 -148 l220 -43 375 0 c308 0 394 3 480 17 58 10 157 24
221 32 124 16 500 106 652 157 208 69 699 292 842 381 258 163 567 434 775
682 71 84 75 87 84 65 5 -13 26 -60 46 -104z m-5784 -53 c74 -92 72 -89 119
-227 21 -60 53 -148 71 -194 19 -46 34 -94 34 -106 0 -23 -93 -195 -137 -254
-34 -45 -78 -61 -165 -61 l-73 0 -106 108 c-58 59 -132 143 -165 187 -32 44
-62 82 -66 83 -21 9 -3 29 45 50 168 73 305 237 354 425 10 37 20 67 23 67 3
-1 33 -36 66 -78z m6757 -154 c12 -8 33 -18 47 -21 14 -4 36 -23 50 -43 13
-20 46 -55 73 -78 101 -84 248 -324 282 -461 8 -32 15 -91 15 -130 0 -66 -2
-73 -31 -101 -25 -24 -39 -29 -77 -29 -48 0 -56 4 -175 71 -132 74 -294 278
-371 464 -32 78 -40 111 -44 181 -3 71 -1 91 13 113 41 62 149 78 218 34z
m-7568 -112 c51 -22 77 -69 71 -129 -6 -59 -47 -151 -84 -191 -45 -47 -204
-171 -262 -204 -111 -62 -217 -77 -250 -37 -32 39 15 200 83 283 66 81 236
234 292 262 67 33 100 37 150 16z m1484 -426 c7 -25 28 -59 47 -78 28 -28 39
-33 62 -27 15 3 35 14 45 22 16 15 17 14 17 -19 0 -45 -54 -118 -88 -118 -34
0 -80 30 -103 67 -27 43 -35 124 -19 174 15 45 22 42 39 -21z m-233 -196 c36
-20 91 -55 122 -79 32 -23 103 -65 158 -94 88 -45 108 -51 160 -51 32 1 86 7
119 15 33 8 98 15 144 15 74 0 88 3 117 25 18 14 35 25 37 25 9 0 117 -196
154 -280 37 -83 38 -88 38 -202 0 -64 -3 -119 -7 -123 -3 -3 -22 4 -42 17 -31
20 -36 28 -36 64 0 33 -11 57 -50 117 -76 115 -110 114 -185 -2 -80 -123 -105
-229 -67 -278 13 -17 32 -24 82 -29 62 -6 67 -5 104 25 42 34 52 32 99 -16
l27 -29 -107 -107 c-116 -115 -163 -145 -273 -173 -55 -14 -81 -15 -167 -6
-56 6 -107 13 -112 16 -7 5 -7 15 -1 32 6 14 10 43 10 64 0 21 7 69 15 105 13
54 14 81 5 143 -13 92 -44 200 -76 265 -46 92 -196 266 -299 345 -103 80 -110
97 -75 170 11 22 20 46 20 52 0 17 19 12 86 -26z m-161 -511 c26 -49 99 -92
126 -75 42 27 39 4 -6 -43 -28 -28 -41 -35 -58 -30 -59 18 -77 46 -93 148 -8
47 5 47 31 0z"/>
</g>
</svg>
